<?xml version="1.0" standalone="no"?>
<!DOCTYPE svg PUBLIC "-//W3C//DTD SVG 20010904//EN" "http://www.w3.org/TR/2001/REC-SVG-20010904/DTD/svg10.dtd">
<svg xmlns="http://www.w3.org/2000/svg" xmlns:svg="http://www.w3.org/2000/svg" xmlns:dc="http://purl.org/dc/elements/1.1/" xmlns:cc="http://web.resource.org/cc/" xmlns:rdf="http://www.w3.org/1999/02/22-rdf-syntax-ns#" version="1.0" width="468pt" height="468pt" viewBox="0 0 468 468" preserveAspectRatio="xMidYMid meet">
  <g transform="translate(0,468) scale(0.078000,-0.078000)" fill="#000000" stroke="none">
    <path d="M3478 5790 c-12 -7 -18 -24 -18 -50 0 -33 4 -41 28 -52 24 -12 28 -20 34 -83 3 -39 8 -130 10 -203 l3 -132 -75 0 c-41 0 -147 7 -235 15 -88 8 -244 15 -347 15 l-188 0 0 186 c0 172 2 189 21 224 35 63 26 70 -93 70 -150 0 -417 -19 -439 -30 -25 -14 -24 -30 6 -93 14 -28 30 -83 35 -122 11 -84 12 -206 2 -221 -4 -6 -50 -19 -102 -28 -52 -9 -123 -24 -157 -32 -34 -8 -72 -14 -85 -14 -56 0 -235 -38 -379 -80 -36 -11 -72 -20 -80 -20 -24 0 -221 -67 -274 -93 -27 -14 -122 -59 -210 -102 -88 -42 -167 -80 -175 -85 -8 -5 -39 -21 -69 -36 -144 -70 -329 -206 -408 -300 -29 -35 -65 -91 -80 -126 -14 -35 -30 -68 -34 -73 -14 -19 -31 -268 -25 -345 13 -145 53 -242 158 -386 44 -59 168 -170 225 -199 21 -11 40 -22 43 -26 10 -12 206 -100 245 -110 17 -4 75 -24 130 -44 55 -20 118 -40 140 -44 274 -53 319 -62 350 -71 17 -5 57 -11 90 -15 33 -3 112 -12 175 -20 63 -8 178 -21 255 -30 77 -9 171 -21 209 -27 l69 -10 -7 -926 c-4 -510 -8 -928 -10 -929 -1 -2 -73 -8 -158 -15 -327 -24 -923 48 -1163 142 -11 4 -40 15 -65 25 -56 21 -56 21 -127 70 -162 111 -274 214 -327 298 l-17 28 38 -8 c21 -4 90 -8 154 -8 112 1 119 2 185 35 110 54 215 170 230 254 3 16 9 36 13 45 9 17 10 156 1 164 -14 14 -101 77 -105 77 -3 0 -37 20 -77 45 l-71 44 -146 0 -146 -1 -73 -40 c-40 -22 -77 -49 -83 -59 -5 -10 -14 -19 -19 -19 -24 0 -80 -75 -80 -107 0 -12 -7 -28 -15 -37 -8 -8 -15 -18 -15 -23 0 -4 -6 -20 -14 -34 -7 -14 -19 -61 -25 -105 -14 -86 -5 -169 24 -227 8 -16 15 -35 15 -41 0 -20 36 -84 69 -123 106 -128 128 -152 151 -166 14 -9 55 -39 92 -69 36 -29 115 -78 175 -108 59 -30 110 -58 111 -62 2 -4 9 -8 15 -8 7 0 60 -24 118 -54 83 -42 126 -58 195 -70 49 -8 114 -22 144 -32 30 -9 82 -22 115 -30 33 -7 79 -20 102 -28 22 -8 43 -13 45 -10 3 2 30 -5 61 -15 30 -11 57 -17 60 -15 2 2 24 -3 48 -12 24 -8 60 -17 79 -20 19 -2 71 -11 115 -19 44 -7 145 -14 224 -15 79 0 148 -3 152 -6 5 -3 9 -45 9 -94 0 -83 -6 -130 -32 -240 -6 -25 -15 -67 -19 -95 -4 -27 -11 -64 -15 -82 -5 -24 -1 -36 16 -53 22 -22 23 -23 259 -15 130 4 244 11 253 16 28 15 31 52 9 119 -16 48 -18 66 -9 77 8 10 8 17 0 25 -8 8 -12 55 -12 135 l0 123 48 0 c52 0 593 -18 800 -26 l132 -6 0 -61 c0 -33 -4 -74 -9 -91 -5 -17 -21 -68 -35 -112 -49 -155 -58 -150 263 -164 140 -6 263 -9 275 -6 12 3 27 15 34 26 14 23 11 57 -25 334 -17 132 -16 136 46 136 19 0 60 7 90 14 85 22 195 47 222 50 39 4 130 26 179 43 25 8 50 16 55 17 105 25 453 141 520 174 87 43 208 123 259 171 46 44 137 154 190 230 75 110 135 253 167 403 13 60 6 265 -11 343 -28 131 -44 171 -109 270 -120 186 -334 326 -656 429 -82 26 -163 54 -180 61 -16 8 -60 28 -97 44 -37 17 -82 31 -100 31 -18 0 -62 7 -98 16 -35 8 -81 16 -101 18 -21 2 -72 11 -116 19 -104 20 -247 45 -304 52 l-46 6 -6 192 c-4 106 -12 458 -18 782 -10 475 -9 623 1 754 l13 163 45 -7 c25 -4 81 -8 126 -11 221 -10 231 -12 371 -80 102 -49 170 -103 216 -172 25 -37 59 -110 59 -128 0 -1 -24 7 -52 20 -29 13 -80 28 -113 34 -63 12 -97 6 -187 -32 -39 -17 -98 -81 -98 -107 0 -9 -6 -32 -14 -50 -7 -19 -16 -72 -20 -119 l-7 -86 38 -44 c21 -25 41 -47 46 -48 4 -2 29 -18 55 -36 78 -53 118 -61 220 -46 141 21 230 69 297 160 96 130 102 316 17 511 -23 52 -97 130 -186 193 -56 40 -256 143 -295 151 -9 2 -54 17 -101 33 -74 25 -155 46 -225 57 -11 2 -48 10 -81 19 -34 9 -78 16 -97 16 -33 0 -34 1 -41 46 -12 90 -7 211 11 251 9 21 25 56 35 79 22 49 23 107 3 127 -19 20 -57 25 -255 37 -91 6 -203 12 -250 15 -53 4 -92 2 -102 -5z m-205 -727 c111 -4 167 -10 167 -17 0 -7 17 -10 46 -7 32 2 49 -1 55 -10 5 -8 9 -108 9 -224 0 -115 7 -390 14 -610 8 -220 17 -523 20 -672 l5 -273 -92 6 c-51 3 -138 12 -195 20 -56 8 -121 14 -145 14 -23 0 -75 6 -117 14 -105 20 -246 44 -302 51 l-48 6 0 849 0 849 108 4 c235 7 316 7 475 0z m-1060 -420 c7 -280 3 -1180 -5 -1188 -3 -3 -31 0 -64 5 -32 6 -95 17 -139 25 -44 8 -96 16 -116 19 -42 5 -186 74 -271 129 -135 87 -218 175 -305 317 -98 163 -85 262 71 515 19 30 125 127 149 134 6 2 30 16 52 30 66 42 122 72 190 101 11 5 50 23 86 39 71 32 131 55 189 73 19 5 40 13 45 16 9 6 92 38 106 41 3 0 9 -115 12 -256z m-835 228 c22 -13 10 -46 -18 -49 -14 -2 -76 -37 -137 -79 -85 -56 -138 -101 -213 -181 -55 -59 -100 -116 -100 -126 0 -10 -15 -37 -33 -60 -17 -23 -54 -73 -81 -113 l-48 -71 12 -94 c6 -51 19 -108 28 -127 38 -79 115 -160 249 -263 26 -21 60 -48 75 -60 15 -13 46 -36 68 -53 28 -20 40 -36 38 -50 -4 -27 -40 -31 -63 -5 -10 11 -27 20 -37 20 -11 0 -52 19 -91 43 -40 23 -98 56 -130 72 -32 17 -77 50 -100 73 -23 24 -63 65 -89 90 l-47 47 -2 100 c-4 166 11 312 32 331 11 10 19 21 19 26 0 4 16 30 35 57 19 26 35 53 35 59 0 6 6 15 13 19 12 8 29 32 47 68 22 44 78 111 111 132 19 13 39 27 46 33 7 5 14 10 17 10 3 0 38 19 78 43 40 24 80 46 88 50 8 4 29 16 45 27 60 40 121 52 153 31z m3322 -381 c0 -5 9 -10 20 -10 16 0 20 -7 20 -30 0 -44 -27 -70 -72 -70 -52 0 -66 27 -41 80 14 32 23 40 46 40 15 0 27 -4 27 -10z m-4123 -655 c66 -82 96 -115 105 -115 20 0 166 -132 164 -148 -5 -30 -33 -24 -116 25 -45 26 -92 54 -106 61 -13 7 -24 22 -24 33 0 10 -9 28 -20 39 -11 11 -20 24 -20 28 0 5 -13 24 -30 42 -37 42 -40 70 -6 70 15 0 34 -13 53 -35z m2233 -910 c30 -3 107 -12 170 -21 63 -8 165 -21 225 -29 61 -8 164 -21 230 -30 66 -8 132 -15 148 -15 l27 0 0 -207 c0 -115 7 -374 15 -578 8 -203 15 -456 15 -560 l0 -191 -82 -27 c-58 -18 -123 -29 -218 -37 -74 -6 -200 -17 -280 -25 -80 -8 -191 -17 -248 -20 -57 -3 -109 -8 -117 -12 -13 -4 -15 110 -15 882 l0 888 38 -6 c20 -3 62 -9 92 -12z m1323 -167 c12 -6 35 -15 52 -19 46 -12 119 -40 125 -48 3 -4 23 -18 45 -31 64 -38 191 -167 220 -223 44 -85 55 -128 55 -216 0 -228 -67 -398 -211 -538 -39 -37 -82 -73 -97 -80 -37 -19 -67 -36 -85 -52 -9 -7 -38 -18 -65 -26 l-50 -13 -7 32 c-7 34 -24 1206 -18 1219 6 10 11 9 36 -5z m856 -330 l113 -103 -7 -85 c-4 -47 -9 -119 -10 -160 -2 -75 -20 -204 -31 -221 -3 -6 -10 -40 -15 -77 -5 -36 -16 -77 -24 -89 -9 -13 -12 -23 -9 -23 4 0 0 -8 -8 -17 -8 -10 -32 -48 -53 -85 -38 -66 -62 -85 -150 -119 -11 -4 -40 -16 -65 -27 -25 -10 -63 -26 -85 -34 -22 -9 -59 -24 -82 -33 -86 -36 -101 13 -21 66 29 19 59 37 68 42 49 24 75 46 78 66 2 12 14 26 28 31 13 5 24 14 24 20 0 5 11 10 25 10 25 0 47 18 90 71 51 64 68 121 85 288 6 53 15 121 20 151 28 165 29 190 12 221 -9 16 -20 29 -24 29 -5 0 -8 11 -8 24 0 17 -15 38 -50 68 -46 40 -60 65 -43 81 15 16 35 2 142 -95z m374 -132 c8 -8 20 -36 26 -63 7 -26 17 -59 23 -73 48 -121 51 -138 33 -213 -9 -40 -23 -87 -31 -105 -8 -18 -14 -45 -14 -60 0 -41 -131 -188 -179 -202 -57 -16 -59 -14 -59 37 0 41 5 53 44 97 28 33 44 60 44 77 0 15 7 40 15 55 8 16 15 39 15 50 0 12 7 41 16 65 20 56 20 134 1 180 -26 60 -32 133 -12 152 20 21 59 22 78 3z m-4615 -115 c20 -16 57 -40 82 -54 36 -20 45 -31 46 -54 3 -66 -50 -72 -124 -13 -27 22 -58 40 -68 40 -16 0 -17 2 -4 10 36 24 -100 -5 -190 -40 -84 -33 -88 -34 -92 -13 -6 27 11 85 33 108 10 11 30 22 44 23 14 1 36 7 48 14 62 34 168 24 225 -21z"/>
  </g>
  <metadata>
    <rdf:RDF>
      <cc:Work>
        <dc:format>image/svg+xml</dc:format>
        <dc:type rdf:resource="http://purl.org/dc/dcmitype/StillImage"/>
        <cc:license rdf:resource="http://creativecommons.org/licenses/publicdomain/"/>
        <dc:publisher>
          <cc:Agent rdf:about="http://openclipart.org/">
            <dc:title>Open Clip Art Library</dc:title>
          </cc:Agent>
        </dc:publisher>
        <dc:title>Money 16</dc:title>
        <dc:date>2012-02-06T15:17:01</dc:date>
        <dc:description>A Dollar Sign</dc:description>
        <dc:source>http://openclipart.org/detail/167791/money-16-by-dripsandcastle</dc:source>
        <dc:creator>
          <cc:Agent>
            <dc:title>dripsandcastle</dc:title>
          </cc:Agent>
        </dc:creator>
        <dc:subject>
          <rdf:Bag>
            <rdf:li>clip art</rdf:li>
            <rdf:li>clipart</rdf:li>
            <rdf:li>dollar</rdf:li>
            <rdf:li>dollar sign</rdf:li>
            <rdf:li>money</rdf:li>
          </rdf:Bag>
        </dc:subject>
      </cc:Work>
      <cc:License rdf:about="http://creativecommons.org/licenses/publicdomain/">
        <cc:permits rdf:resource="http://creativecommons.org/ns#Reproduction"/>
        <cc:permits rdf:resource="http://creativecommons.org/ns#Distribution"/>
        <cc:permits rdf:resource="http://creativecommons.org/ns#DerivativeWorks"/>
      </cc:License>
    </rdf:RDF>
  </metadata>
</svg>
